<?xml version="1.0" encoding="UTF-8"?>
<!-- Generator: Adobe Illustrator 12.0.0, SVG Export Plug-In . SVG Version: 6.00 Build 51448)  -->
<!DOCTYPE svg PUBLIC "-//W3C//DTD SVG 1.1//EN" "http://www.w3.org/Graphics/SVG/1.1/DTD/svg11.dtd" [
	<!ENTITY ns_svg "http://www.w3.org/2000/svg">
	<!ENTITY ns_xlink "http://www.w3.org/1999/xlink">
]>
<svg version="1.1" id="Layer_1" xmlns="http://www.w3.org/2000/svg" xmlns:xlink="http://www.w3.org/1999/xlink" width="235.434" height="200" viewBox="0 0 235.434 200" overflow="visible" enable-background="new 0 0 235.434 200" xml:space="preserve">
<g>
	<path fill-rule="evenodd" clip-rule="evenodd" fill="#382414" d="M108.188,2.772c-6.915-2.766-29.784-3.5-42.229,4.337   c-4.61,2.765-14.753-3.688-40.103,13.368c-6.913,2.303-29.5,5.069-25.353,28.578c1.844,10.142,10.601,28.579,22.125,43.33   c2.766,2.765,0.923,11.52-1.381,17.055c-1.383,4.609,2.304,15.207,9.219,5.066c1.844,6.455,4.146,7.838,9.218,10.603   c-0.922,5.532,2.305,37.8,19.36,51.165c4.609,12.446,21.665,33.65,37.336,18.439c4.148,2.764,27.196,1.845,30.422-1.843   c3.688,3.224,26.737,13.826,39.641-5.994c2.766-7.374,18.438-10.603,15.212-40.561c-0.923-11.528,15.211-15.675,12.906-45.175   c4.609-1.382,1.385,14.751,6.451,16.598c3.228,1.84,5.072-4.152,3.688-12.452c-0.46-7.373,23.049-19.815,30.426-55.77   c2.765-12.907-13.368-28.118-40.564-35.032c-4.608-1.843-14.669-18.615-43.729-11.983c-2.764,0.92-10.104-2.923-18.862-2.462   C124.137-0.422,119.123,4.14,108.188,2.772L108.188,2.772z"/>
	<path fill-rule="evenodd" clip-rule="evenodd" fill="#DE6226" d="M33.693,24.164c-10.601,4.149-29.5,7.373-26.734,22.125   c1.845,7.374,6.453,11.982,5.531,21.666C25.398,55.046,6.959,35.227,33.693,24.164L33.693,24.164z"/>
	<path fill-rule="evenodd" clip-rule="evenodd" fill="#DE6226" d="M123.849,57.906c6.489-1.525,7.633-3.052,19.465-13.358   c4.965-3.436,17.179-8.016,27.103,9.16c1.146,2.673,0.763,3.435-1.908,0.763c-4.58-5.726-17.176-13.358-24.81-2.671   c-3.435,5.343-9.163,11.831-20.231,11.831C121.939,63.25,120.794,58.288,123.849,57.906L123.849,57.906z"/>
	<path fill-rule="evenodd" clip-rule="evenodd" fill="#DE6226" d="M188.11,16.329c-7.377-8.296-25.813-14.75-36.415-7.378   c-4.608-2.765-26.275-4.606-38.26,0.923C106.984,7.571,71.49-1.187,45.217,32.923c-3.426,4.079-7.196,11.342-9.944,19.794   c-4.987,5.919-8.579,15.343-3.927,24.473c0.22,8.236,2.331,15.964,7.417,21.646c2.305,1.845-0.458,6.454-4.147,2.767   c0,6.454-2.303,12.904,9.681,21.663c0.46,10.14,3.687,40.106,17.514,47.941c-8.756-27.197,3.226-14.293,4.149-36.876   c0.921-8.297-9.218-12.446,2.304-21.206c12.908-8.297-0.919-14.289,9.219-20.74c6.914-3.688,6.454-8.297,21.664-6.456   c4.609-0.923,11.985-5.069,23.509,0.461c4.607,2.767,6.916,0,3.228-2.303c-3.688-1.844-4.61-5.533-30.887-3.687   c4.611-2.307,17.519-9.22,36.416,3.687c4.611,3.226,8.761,2.765,4.611-1.844c-3.226-2.305-4.611-8.298-14.289-9.681   c-7.046-1.295-0.212-3.304-6.666-11.601c-2.29-2.674-3.053-10.308,4.581-12.216c5.726-2.671,6.105-8.015-3.435-4.58   c-8.016,1.146-9.161,2.29-8.779,5.344c-3.434,2.67-1.909,12.979-1.527,14.505c0.766,3.436-2.289,6.486-11.452,8.398   c-6.108,0-16.791,3.433-19.084,14.121c-6.107,2.672-20.993,14.888-24.045,28.246c-1.91-2.289-4.199-14.887,0-17.176   c3.814-1.91,1.143-12.215,6.487-10.688c3.817,0,1.528-6.488-2.673-6.488c-2.669-1.526-5.343-4.197-5.343-11.833   c1.529-3.436-1.524-12.979,11.833-12.979c2.672-0.381-2.669-6.871-13.357,0c2.289-7.251,11.45-5.725,13.74-11.451   c1.525,5.726,16.029,8.78,22.519,17.94c4.962,3.817,20.993,6.109,19.085-6.105c0-4.201-10.305-7.637-8.779-11.834   c1.146-1.909,6.489,6.87,9.542,4.58c1.908-4.197,1.908-6.489,7.633-6.489c4.583-0.763-2.289-4.96-5.725-3.816   c-8.016-2.672,10.307-3.435,14.122-11.069c2.291-1.909,18.325,7.251,23.283-0.763c3.436-3.437,26.338,0.763,28.247-6.871   C176.141,12.867,191.681,22.46,188.11,16.329L188.11,16.329z"/>
	<path fill-rule="evenodd" clip-rule="evenodd" fill="#DE6226" d="M177.285,28.134c-0.382,8.779,11.071,16.031,12.597,30.535   c0.765,7.635-0.381,11.071,3.436,15.649c3.818,2.293,1.631-5.837,2.289-15.267c0.453-10.674-11.831-23.284-11.452-29.772   C183.775,25.845,177.667,23.171,177.285,28.134L177.285,28.134z"/>
	<path fill-rule="evenodd" clip-rule="evenodd" fill="#DE6226" d="M153.623,115.352c-5.157,14.886,9.156,24.047,6.869,36.071   c-0.165,2.499,2.165,4.052,3.331-0.996c1.941-10.092-6.992-21.741-5.826-32.416C158.584,114.708,154.872,112.89,153.623,115.352   L153.623,115.352z"/>
	<path fill-rule="evenodd" clip-rule="evenodd" fill="#DE6226" d="M75.752,180.052c-3.817-4.964-5.724-11.832-1.524-19.468   c1.524-5.346-3.817-24.428,8.397-26.339c11.451-0.764,9.161-16.409,19.084-17.555c2.291,0,3.053-6.11-1.146-6.11   c-4.963,0.764-11.888-1.444-14.565-8.849c-1.144-2.291,1.969-2.222,3.877-1.458c4.58,0.385-1.528-8.014,5.343-8.396   c1.912,1.145,4.573,11.688-2.298,12.067c0.382,2.29,7.26,5.49,8.027,2.054c0-2.29,5.726-2.287,6.868,0.384   c2.293,1.146,9.163-2.289,6.872-5.344c-1.909-2.291-2.672-9.543,0.381-9.161c2.673,0.763,0.766,9.159,6.108,8.396   c2.673-1.146,7.252-5.343,6.488,1.147c-1.145,3.817-4.579,3.433-9.542,3.054c-1.908,2.67-3.816,3.813-8.396,4.961   c-2.291,1.145-2.672,4.963,0.383,6.109c3.433,0.378,8.777,10.686,16.03,16.412c7.635,3.434,16.411,19.847,14.124,32.826   c-0.384,4.195-2.674,3.052-3.054-1.911c0-7.634-2.674-17.176-12.215-24.81c-6.108-3.435-6.49-14.887-21.376-14.121   c-8.017,0-7.254,11.831-16.032,12.595c-11.834,6.107-4.58,8.396-8.397,24.813c-1.91,5.341-4.961,8.014-2.672,13.356   C78.426,177.382,78.808,181.961,75.752,180.052L75.752,180.052z"/>
	<path fill-rule="evenodd" clip-rule="evenodd" fill="#DE6226" d="M147.515,79.664c4.961-1.528,11.829-1.146,14.122-12.979   c0.765-4.197,5.342-0.379,4.196,3.818c-1.905,4.58-8.396,10.684-14.12,11.068C147.131,81.954,143.316,80.809,147.515,79.664   L147.515,79.664z"/>
	<path fill-rule="evenodd" clip-rule="evenodd" fill="#DE6226" d="M97.13,135.774c4.58-4.965,5.341-4.965,8.396-4.965   c8.015-0.379,3.435,5.347,11.832,7.638c1.908,0.379,0.002,2.29-11.069,1.906C97.892,140.737,89.877,141.116,97.13,135.774   L97.13,135.774z"/>
	<path fill-rule="evenodd" clip-rule="evenodd" fill="#FFFFFF" d="M76.926,67.331c-0.149,3.247-2.808,5.842-6.093,5.842   c-3.381,0-6.122-2.74-6.122-6.121c0-1.922,0.904-3.614,2.291-4.737c-1.576-1.059-2.974-2.139-4.036-3.134   c-7.29,4.663-4.083,13.991,2.911,16.032c11.369,3.789,16.324-2.913,16.616-6.994C80.954,68.389,79.01,68.023,76.926,67.331   L76.926,67.331z"/>
	<path fill-rule="evenodd" clip-rule="evenodd" fill="#FFFFFF" d="M156.82,58.307c-1.154,0.461-4.129,1.649-7.73,2.952   c0.814,1.042,1.318,2.331,1.318,3.753c0,3.379-2.739,6.12-6.123,6.12c-3.381,0-6.12-2.741-6.12-6.12   c0-0.091,0.022-0.173,0.026-0.263c-2.196,0.577-4.231,1.002-5.857,1.136c1.824,6.325,7.87,13.408,18.363,8.455   C158.569,71.132,160.028,61.515,156.82,58.307L156.82,58.307z"/>
	<path fill-rule="evenodd" clip-rule="evenodd" fill="#DE6226" d="M71.999,65.159c0,1.289-1.043,2.333-2.33,2.333   c-1.289,0-2.333-1.044-2.333-2.333c0-1.287,1.043-2.331,2.333-2.331C70.956,62.828,71.999,63.872,71.999,65.159L71.999,65.159z"/>
	<path fill-rule="evenodd" clip-rule="evenodd" fill="#DE6226" d="M146.523,64.396c0,1.126-0.917,2.04-2.042,2.04   c-1.128,0-2.04-0.914-2.04-2.04c0-1.129,0.912-2.04,2.04-2.04C145.606,62.356,146.523,63.268,146.523,64.396L146.523,64.396z"/>
	<path fill-rule="evenodd" clip-rule="evenodd" fill="#382414" d="M79.951,42.638c5.727-2.669,12.6-3.054,14.888-13.74   c0.762-4.2,4.199-3.436,3.818,2.29c0,4.962-4.582,11.832-15.651,14.886C77.28,47.6,75.755,44.93,79.951,42.638L79.951,42.638z"/>
	<path fill-rule="evenodd" clip-rule="evenodd" fill="#382414" d="M108.188,2.772c-6.915-2.766-29.784-3.5-42.229,4.337   c-4.61,2.765-14.753-3.688-40.103,13.368c-6.913,2.303-29.5,5.069-25.353,28.578c1.844,10.142,10.601,28.579,22.125,43.33   c2.766,2.765,0.923,11.52-1.381,17.055c-1.383,4.609,2.304,15.207,9.219,5.066c1.844,6.455,4.146,7.838,9.218,10.603   c-0.922,5.532,2.305,37.8,19.36,51.165c4.609,12.446,21.665,33.65,37.336,18.439c4.148,2.764,27.196,1.845,30.422-1.843   c3.688,3.224,26.737,13.826,39.641-5.994c2.766-7.374,18.438-10.603,15.212-40.561c-0.923-11.528,15.211-15.675,12.906-45.175   c4.609-1.382,1.385,14.751,6.451,16.598c3.228,1.84,5.072-4.152,3.688-12.452c-0.46-7.373,23.049-19.815,30.426-55.77   c2.765-12.907-13.368-28.118-40.564-35.032c-4.608-1.843-14.669-18.615-43.729-11.983c-2.764,0.92-10.104-2.923-18.862-2.462   C124.137-0.422,119.123,4.14,108.188,2.772L108.188,2.772z"/>
	<path fill-rule="evenodd" clip-rule="evenodd" fill="#DE6226" d="M33.693,24.164c-10.601,4.149-29.5,7.373-26.734,22.125   c1.845,7.374,6.453,11.982,5.531,21.666C25.398,55.046,6.959,35.227,33.693,24.164L33.693,24.164z"/>
	<path fill-rule="evenodd" clip-rule="evenodd" fill="#DE6226" d="M123.849,57.906c6.489-1.525,7.633-3.052,19.465-13.358   c4.965-3.436,17.179-8.016,27.103,9.16c1.146,2.673,0.763,3.435-1.908,0.763c-4.58-5.726-17.176-13.358-24.81-2.671   c-3.435,5.343-9.163,11.831-20.231,11.831C121.939,63.25,120.794,58.288,123.849,57.906L123.849,57.906z"/>
	<path fill-rule="evenodd" clip-rule="evenodd" fill="#DE6226" d="M188.11,16.329c-7.377-8.296-25.813-14.75-36.415-7.378   c-4.608-2.765-26.275-4.606-38.26,0.923C106.984,7.571,71.49-1.187,45.217,32.923c-3.426,4.079-7.196,11.342-9.944,19.794   c-4.987,5.919-8.579,15.343-3.927,24.473c0.22,8.236,2.331,15.964,7.417,21.646c2.305,1.845-0.458,6.454-4.147,2.767   c0,6.454-2.303,12.904,9.681,21.663c0.46,10.14,3.687,40.106,17.514,47.941c-8.756-27.197,3.226-14.293,4.149-36.876   c0.921-8.297-9.218-12.446,2.304-21.206c12.908-8.297-0.919-14.289,9.219-20.74c6.914-3.688,6.454-8.297,21.664-6.456   c4.609-0.923,11.985-5.069,23.509,0.461c4.607,2.767,6.916,0,3.228-2.303c-3.688-1.844-4.61-5.533-30.887-3.687   c4.611-2.307,17.519-9.22,36.416,3.687c4.611,3.226,8.761,2.765,4.611-1.844c-3.226-2.305-4.611-8.298-14.289-9.681   c-7.046-1.295-0.212-3.304-6.666-11.601c-2.29-2.674-3.053-10.308,4.581-12.216c5.726-2.671,6.105-8.015-3.435-4.58   c-8.016,1.146-9.161,2.29-8.779,5.344c-3.434,2.67-1.909,12.979-1.527,14.505c0.766,3.436-2.289,6.486-11.452,8.398   c-6.108,0-16.791,3.433-19.084,14.121c-6.107,2.672-20.993,14.888-24.045,28.246c-1.91-2.289-4.199-14.887,0-17.176   c3.814-1.91,1.143-12.215,6.487-10.688c3.817,0,1.528-6.488-2.673-6.488c-2.669-1.526-5.343-4.197-5.343-11.833   c1.529-3.436-1.524-12.979,11.833-12.979c2.672-0.381-2.669-6.871-13.357,0c2.289-7.251,11.45-5.725,13.74-11.451   c1.525,5.726,16.029,8.78,22.519,17.94c4.962,3.817,20.993,6.109,19.085-6.105c0-4.201-10.305-7.637-8.779-11.834   c1.146-1.909,6.489,6.87,9.542,4.58c1.908-4.197,1.908-6.489,7.633-6.489c4.583-0.763-2.289-4.96-5.725-3.816   c-8.016-2.672,10.307-3.435,14.122-11.069c2.291-1.909,18.325,7.251,23.283-0.763c3.436-3.437,26.338,0.763,28.247-6.871   C176.141,12.867,191.681,22.46,188.11,16.329L188.11,16.329z"/>
	<path fill-rule="evenodd" clip-rule="evenodd" fill="#DE6226" d="M177.285,28.134c-0.382,8.779,11.071,16.031,12.597,30.535   c0.765,7.635-0.381,11.071,3.436,15.649c3.818,2.293,1.631-5.837,2.289-15.267c0.453-10.674-11.831-23.284-11.452-29.772   C183.775,25.845,177.667,23.171,177.285,28.134L177.285,28.134z"/>
	<path fill-rule="evenodd" clip-rule="evenodd" fill="#DE6226" d="M153.623,115.352c-5.157,14.886,9.156,24.047,6.869,36.071   c-0.165,2.499,2.165,4.052,3.331-0.996c1.941-10.092-6.992-21.741-5.826-32.416C158.584,114.708,154.872,112.89,153.623,115.352   L153.623,115.352z"/>
	<path fill-rule="evenodd" clip-rule="evenodd" fill="#DE6226" d="M75.752,180.052c-3.817-4.964-5.724-11.832-1.524-19.468   c1.524-5.346-3.817-24.428,8.397-26.339c11.451-0.764,9.161-16.409,19.084-17.555c2.291,0,3.053-6.11-1.146-6.11   c-4.963,0.764-11.888-1.444-14.565-8.849c-1.144-2.291,1.969-2.222,3.877-1.458c4.58,0.385-1.528-8.014,5.343-8.396   c1.912,1.145,4.573,11.688-2.298,12.067c0.382,2.29,7.26,5.49,8.027,2.054c0-2.29,5.726-2.287,6.868,0.384   c2.293,1.146,9.163-2.289,6.872-5.344c-1.909-2.291-2.672-9.543,0.381-9.161c2.673,0.763,0.766,9.159,6.108,8.396   c2.673-1.146,7.252-5.343,6.488,1.147c-1.145,3.817-4.579,3.433-9.542,3.054c-1.908,2.67-3.816,3.813-8.396,4.961   c-2.291,1.145-2.672,4.963,0.383,6.109c3.433,0.378,8.777,10.686,16.03,16.412c7.635,3.434,16.411,19.847,14.124,32.826   c-0.384,4.195-2.674,3.052-3.054-1.911c0-7.634-2.674-17.176-12.215-24.81c-6.108-3.435-6.49-14.887-21.376-14.121   c-8.017,0-7.254,11.831-16.032,12.595c-11.834,6.107-4.58,8.396-8.397,24.813c-1.91,5.341-4.961,8.014-2.672,13.356   C78.426,177.382,78.808,181.961,75.752,180.052L75.752,180.052z"/>
	<path fill-rule="evenodd" clip-rule="evenodd" fill="#DE6226" d="M147.515,79.664c4.961-1.528,11.829-1.146,14.122-12.979   c0.765-4.197,5.342-0.379,4.196,3.818c-1.905,4.58-8.396,10.684-14.12,11.068C147.131,81.954,143.316,80.809,147.515,79.664   L147.515,79.664z"/>
	<path fill-rule="evenodd" clip-rule="evenodd" fill="#DE6226" d="M97.13,135.774c4.58-4.965,5.341-4.965,8.396-4.965   c8.015-0.379,3.435,5.347,11.832,7.638c1.908,0.379,0.002,2.29-11.069,1.906C97.892,140.737,89.877,141.116,97.13,135.774   L97.13,135.774z"/>
	<path fill-rule="evenodd" clip-rule="evenodd" fill="#FFFFFF" d="M76.926,67.331c-0.149,3.247-2.808,5.842-6.093,5.842   c-3.381,0-6.122-2.74-6.122-6.121c0-1.922,0.904-3.614,2.291-4.737c-1.576-1.059-2.974-2.139-4.036-3.134   c-7.29,4.663-4.083,13.991,2.911,16.032c11.369,3.789,16.324-2.913,16.616-6.994C80.954,68.389,79.01,68.023,76.926,67.331   L76.926,67.331z"/>
	<path fill-rule="evenodd" clip-rule="evenodd" fill="#FFFFFF" d="M156.82,58.307c-1.154,0.461-4.129,1.649-7.73,2.952   c0.814,1.042,1.318,2.331,1.318,3.753c0,3.379-2.739,6.12-6.123,6.12c-3.381,0-6.12-2.741-6.12-6.12   c0-0.091,0.022-0.173,0.026-0.263c-2.196,0.577-4.231,1.002-5.857,1.136c1.824,6.325,7.87,13.408,18.363,8.455   C158.569,71.132,160.028,61.515,156.82,58.307L156.82,58.307z"/>
	<path fill-rule="evenodd" clip-rule="evenodd" fill="#DE6226" d="M71.999,65.159c0,1.289-1.043,2.333-2.33,2.333   c-1.289,0-2.333-1.044-2.333-2.333c0-1.287,1.043-2.331,2.333-2.331C70.956,62.828,71.999,63.872,71.999,65.159L71.999,65.159z"/>
	<path fill-rule="evenodd" clip-rule="evenodd" fill="#DE6226" d="M146.523,64.396c0,1.126-0.917,2.04-2.042,2.04   c-1.128,0-2.04-0.914-2.04-2.04c0-1.129,0.912-2.04,2.04-2.04C145.606,62.356,146.523,63.268,146.523,64.396L146.523,64.396z"/>
	<path fill-rule="evenodd" clip-rule="evenodd" fill="#382414" d="M79.951,42.638c5.727-2.669,12.6-3.054,14.888-13.74   c0.762-4.2,4.199-3.436,3.818,2.29c0,4.962-4.582,11.832-15.651,14.886C77.28,47.6,75.755,44.93,79.951,42.638L79.951,42.638z"/>
</g>
</svg>